<svg width="52" height="58" viewBox="0 0 58 64" fill="none" xmlns="http://www.w3.org/2000/svg">
  <path d="M14 5C13 4 11 5 11 7C-1 16-5 34 3 48C10 60 28 62 42 56C52 50 56 36 52 24C54 23 55 22 54 21C56 32 54 48 44 54C32 62 12 58 4 46C-4 34 0 16 14 6Z" fill="#7fb22e"/>
  <path d="M38 46C37 47 36 47 36 46C30 52 16 50 10 40C6 30 10 16 22 11C32 7 42 14 44 24C44 25 45 27 44 27C42 18 34 11 24 13C14 16 8 28 12 38C16 46 28 50 36 45Z" fill="#7fb22e" opacity=".5"/>
  <path d="M34 28C35 27 35 26 34 26C34 22 28 18 22 18C16 20 14 28 16 34C18 40 24 42 30 40C31 40 31 39 30 39C26 40 20 38 18 34C16 28 18 22 22 20C28 18 32 22 33 27Z" fill="#7fb22e" opacity=".28"/>
  <circle cx="26" cy="30" r="3.5" fill="#7fb22e"/>
</svg>
